<?xml version="1.0" encoding="utf-8"?>
<!-- Generator: Adobe Illustrator 23.1.1, SVG Export Plug-In . SVG Version: 6.00 Build 0)  -->
<svg version="1.1" id="Calque_1" xmlns="http://www.w3.org/2000/svg" xmlns:xlink="http://www.w3.org/1999/xlink" x="0px" y="0px"
	 viewBox="0 0 193 408.9" style="enable-background:new 0 0 193 408.9;" xml:space="preserve">
<style type="text/css">
	.st0{fill:#FFFFFF;stroke:#000000;stroke-width:3;stroke-miterlimit:10;}
	.st1{fill:#FFFFFF;stroke:#000000;stroke-width:2.9999;stroke-miterlimit:9.9997;}
</style>
<path class="st0" d="M47.7,357.8c5.6,14.8,17.3,26.6,32.3,31.7c4,1.3,8.3,2.3,12.9,2.5c23.2,1.1,40.1-17.5,40.1-17.5
	s28.2-43.5,26-97.1s3.4-94.9,3.4-94.9s11.1-83.6-26.5-137.2c-20.3-29-46.2-30-46.2-30S48.3,11.4,34.8,60
	c-12.2,43.8-7.9,67.2-7.9,67.2s7.9,44.7,13,76.5c0,0,1,34.4-3.4,69.2C32,308.2,41,340.2,47.7,357.8z"/>
<path class="st0" d="M37,122.1c0,0-6.2,0.9,10-36.3s19.6-57.6,44.8-57.2c25.2,0.4,36.1,28.2,36.1,28.2s21.7,49.8,25.2,55.7
	c3.5,5.9-20.3-1.5-20.3-1.5s-7.5-1.9-6.8,6.8c0.8,8.7,8.7,128,8.7,128s4.1,12.1,13,39c8.9,26.8-19.8,75.7-19.8,75.7
	s-31.1,54.2-66.6-1.7S50,257,50,257s17-31.1,15.2-77.4c-1.7-45.2,6.4-69.6,2.3-71.2C52.7,102.9,37,122.1,37,122.1z"/>
<path class="st0" d="M53.4,282.6c0,0-3-17.3,4.5-25.6c7.5-8.3,14.7-139.5,14.7-139.5h48.6c0,0,5.5,120.8,13.6,136.5
	s4.9,30.5,4.9,30.5S102.7,242.4,53.4,282.6z"/>
<rect x="57.9" y="117.6" class="st0" width="76.8" height="9"/>
<rect x="57.9" y="128.7" transform="matrix(0.9554 -0.2952 0.2952 0.9554 -34.693 34.3105)" class="st1" width="76.8" height="6.7"/>
<rect x="93" y="93.7" transform="matrix(0.2952 -0.9554 0.9554 0.2952 -58.3227 185.1289)" class="st1" width="6.7" height="76.8"/>
<rect x="57.9" y="150.8" transform="matrix(0.9554 -0.2952 0.2952 0.9554 -41.215 35.3017)" class="st1" width="76.8" height="6.7"/>
<rect x="93" y="115.6" transform="matrix(0.2952 -0.9554 0.9554 0.2952 -79.28 200.6205)" class="st1" width="6.7" height="76.8"/>
<rect x="57.9" y="172.5" transform="matrix(0.9554 -0.2952 0.2952 0.9554 -47.622 36.265)" class="st1" width="76.8" height="6.7"/>
<rect x="93" y="137.4" transform="matrix(0.2952 -0.9554 0.9554 0.2952 -100.0994 215.959)" class="st1" width="6.7" height="76.8"/>
<rect x="57.9" y="195.4" transform="matrix(0.9554 -0.2952 0.2952 0.9554 -54.3823 37.2852)" class="st1" width="76.8" height="6.7"/>
<rect x="93" y="160.3" transform="matrix(0.2952 -0.9554 0.9554 0.2952 -121.9846 232.1006)" class="st1" width="6.7" height="76.8"/>
<rect x="47.6" y="219" transform="matrix(0.9554 -0.2952 0.2952 0.9554 -61.5754 36.8483)" class="st1" width="87.3" height="6.7"/>
<rect x="97.7" y="178.9" transform="matrix(0.2952 -0.9554 0.9554 0.2952 -141.074 253.1967)" class="st1" width="6.7" height="86.7"/>
<path class="st0" d="M50,292.6c0,0,48.2-44,89.4,2.6c0,0-10.3,80.4-44.7,79.6C57.8,374,50,292.6,50,292.6z"/>
</svg>
